<?xml version="1.0" encoding="utf-8"?>
<!-- Generator: Adobe Illustrator 22.1.0, SVG Export Plug-In . SVG Version: 6.00 Build 0)  -->
<svg version="1.1" id="Layer_1" xmlns="http://www.w3.org/2000/svg" xmlns:xlink="http://www.w3.org/1999/xlink" x="0px" y="0px"
	 viewBox="0 0 1440 720" style="enable-background:new 0 0 1440 720;" xml:space="preserve">
<style type="text/css">
	.st0{fill:#FFFFFF;stroke:#000000;stroke-miterlimit:10;}
</style>
<path class="st0" d="M621.2,396.2H469.9c-6.6,0-12-5.4-12-12V232.9c0-6.6,5.4-12,12-12h151.3c6.6,0,12,5.4,12,12v151.3
	C633.2,390.8,627.8,396.2,621.2,396.2z"/>
<path class="st0" d="M588.7,365.8h-88.3c-6.6,0-12-5.4-12-12v-88.3c0-6.6,5.4-12,12-12h88.3c6.6,0,12,5.4,12,12v88.3
	C600.7,360.4,595.3,365.8,588.7,365.8z"/>
<path class="st0" d="M644.3,423.6l-37.4-29.4c-5.2-4.1-6.1-11.7-2-16.9l6.5-8.3c4.1-5.2,11.7-6.1,16.9-2l37.4,29.4
	c5.2,4.1,6.1,11.7,2,16.9l-6.5,8.3C657.1,426.7,649.5,427.7,644.3,423.6z"/>
<path class="st0" d="M505.7,181.2L505.7,181.2c3.1-1.5,6.8-0.2,8.3,2.8l20,41.1c1.5,3.1,0.2,6.8-2.8,8.3l0,0
	c-3.1,1.5-6.8,0.2-7.3-2.8l-20-41.1C501.4,186.4,502.7,182.7,505.7,181.2z"/>
<path class="st0" d="M558.3,227.7l12.2-38.9c1.2-3.9-1-8.1-4.8-9.3l0,0c-3.9-1.2-8.1,1-9.3,4.8l-12.2,38.9c-1.2,3.9,1,8.1,4.8,9.3
	l0,0C552.9,233.8,557,231.6,558.3,227.7z"/>
</svg>
